<svg width="58" height="58" viewBox="0 0 58 58" fill="none" xmlns="http://www.w3.org/2000/svg">
<g filter="url(#filter0_d_2_29)">
<path d="M48.5312 0H9.46875C6.50713 0 4.09766 2.40947 4.09766 5.37109V38.6719C4.09766 41.6335 6.50713 44.043 9.46875 44.043H9.95703V48.5352C9.95703 49.3441 10.6129 50 11.4219 50C12.2309 50 12.8867 49.3441 12.8867 48.5352V23.5352H24.6055V26.4648H20.2109C19.402 26.4648 18.7461 27.1207 18.7461 27.9297C18.7461 28.7387 19.402 29.3945 20.2109 29.3945H24.6055V32.3242H17.2812C16.4723 32.3242 15.8164 32.9801 15.8164 33.7891C15.8164 34.598 16.4723 35.2539 17.2812 35.2539H24.6055V38.1836H20.2109C19.402 38.1836 18.7461 38.8395 18.7461 39.6484C18.7461 40.4574 19.402 41.1133 20.2109 41.1133H24.6055V44.043H17.2812C16.4723 44.043 15.8164 44.6988 15.8164 45.5078C15.8164 46.3168 16.4723 46.9727 17.2812 46.9727H24.6055V48.5352C24.6055 49.3441 25.2613 50 26.0703 50C26.8793 50 27.5352 49.3441 27.5352 48.5352V44.043H33.3945V48.5352C33.3945 49.3441 34.0504 50 34.8594 50C35.6684 50 36.3242 49.3441 36.3242 48.5352V32.3242H39.2539V48.5352C39.2539 49.3441 39.9098 50 40.7188 50C41.5277 50 42.1836 49.3441 42.1836 48.5352V32.3242H45.1133V48.5352C45.1133 49.3441 45.7691 50 46.5781 50C47.3871 50 48.043 49.3441 48.043 48.5352V44.043H48.5312C51.4929 44.043 53.9023 41.6335 53.9023 38.6719V5.37109C53.9023 2.40947 51.4929 0 48.5312 0ZM9.46875 2.92969H48.5312C49.8774 2.92969 50.9727 4.0249 50.9727 5.37109V11.8164H7.02734V5.37109C7.02734 4.0249 8.12256 2.92969 9.46875 2.92969ZM36.7353 29.3945L40.7188 24.4152L44.7022 29.3945H36.7353ZM48.5312 41.1133H48.043V29.3945C48.043 29.0619 47.9298 28.7392 47.722 28.4795L41.8626 21.1553C41.2768 20.4229 40.1611 20.4226 39.5749 21.1553L33.7155 28.4795C33.5077 28.7392 33.3945 29.0619 33.3945 29.3945V41.1133H27.5352V22.0703C27.5352 21.2613 26.8793 20.6055 26.0703 20.6055H11.4219C10.6129 20.6055 9.95703 21.2613 9.95703 22.0703V41.1133H9.46875C8.12256 41.1133 7.02734 40.0181 7.02734 38.6719V14.7461H50.9727V38.6719C50.9727 40.0181 49.8774 41.1133 48.5312 41.1133Z" fill="#61594D"/>
<path d="M40.7188 8.88672C41.5278 8.88672 42.1836 8.23089 42.1836 7.42188C42.1836 6.61286 41.5278 5.95703 40.7188 5.95703C39.9097 5.95703 39.2539 6.61286 39.2539 7.42188C39.2539 8.23089 39.9097 8.88672 40.7188 8.88672Z" fill="#61594D"/>
<path d="M46.5781 8.88672C47.3871 8.88672 48.043 8.23089 48.043 7.42188C48.043 6.61286 47.3871 5.95703 46.5781 5.95703C45.7691 5.95703 45.1133 6.61286 45.1133 7.42188C45.1133 8.23089 45.7691 8.88672 46.5781 8.88672Z" fill="#61594D"/>
<path d="M34.8594 8.88672C35.6684 8.88672 36.3242 8.23089 36.3242 7.42188C36.3242 6.61286 35.6684 5.95703 34.8594 5.95703C34.0504 5.95703 33.3945 6.61286 33.3945 7.42188C33.3945 8.23089 34.0504 8.88672 34.8594 8.88672Z" fill="#61594D"/>
</g>
<defs>
<filter id="filter0_d_2_29" x="0" y="0" width="58" height="58" filterUnits="userSpaceOnUse" color-interpolation-filters="sRGB">
<feFlood flood-opacity="0" result="BackgroundImageFix"/>
<feColorMatrix in="SourceAlpha" type="matrix" values="0 0 0 0 0 0 0 0 0 0 0 0 0 0 0 0 0 0 127 0" result="hardAlpha"/>
<feOffset dy="4"/>
<feGaussianBlur stdDeviation="2"/>
<feComposite in2="hardAlpha" operator="out"/>
<feColorMatrix type="matrix" values="0 0 0 0 0 0 0 0 0 0 0 0 0 0 0 0 0 0 0.25 0"/>
<feBlend mode="normal" in2="BackgroundImageFix" result="effect1_dropShadow_2_29"/>
<feBlend mode="normal" in="SourceGraphic" in2="effect1_dropShadow_2_29" result="shape"/>
</filter>
</defs>
</svg>
