<svg width="58" height="58" fill="none" xmlns="http://www.w3.org/2000/svg"><g filter="url(#filter0_d_2_29)" fill="#61594D"><path d="M48.531 0H9.47a5.377 5.377 0 00-5.371 5.371v33.3a5.377 5.377 0 005.37 5.372h.489v4.492a1.465 1.465 0 002.93 0v-25h11.718v2.93h-4.394a1.465 1.465 0 000 2.93h4.395v2.93H17.28a1.465 1.465 0 000 2.929h7.325v2.93H20.21a1.465 1.465 0 000 2.93h4.395v2.929H17.28a1.465 1.465 0 000 2.93h7.325v1.562a1.465 1.465 0 002.93 0v-4.492h5.858v4.492a1.465 1.465 0 002.93 0v-16.21h2.93v16.21a1.465 1.465 0 002.93 0v-16.21h2.93v16.21a1.465 1.465 0 002.929 0v-4.492h.488a5.377 5.377 0 005.371-5.371v-33.3A5.377 5.377 0 0048.532 0zM9.47 2.93h39.06a2.444 2.444 0 012.442 2.441v6.445H7.027V5.371A2.444 2.444 0 019.47 2.93zm27.266 26.465l3.984-4.98 3.983 4.98h-7.967zm11.796 11.718h-.488V29.395c0-.333-.113-.656-.321-.915l-5.86-7.325a1.465 1.465 0 00-2.287 0l-5.86 7.325c-.207.26-.32.582-.32.915v11.718h-5.86V22.07c0-.809-.656-1.465-1.465-1.465H11.422c-.81 0-1.465.656-1.465 1.465v19.043h-.488a2.444 2.444 0 01-2.442-2.441V14.746h43.946v23.926a2.444 2.444 0 01-2.442 2.441z"/><path d="M40.719 8.887a1.465 1.465 0 100-2.93 1.465 1.465 0 000 2.93zm5.859 0a1.465 1.465 0 100-2.93 1.465 1.465 0 000 2.93zm-11.718 0a1.465 1.465 0 100-2.93 1.465 1.465 0 000 2.93z"/></g><defs><filter id="filter0_d_2_29" x="0" y="0" width="58" height="58" filterUnits="userSpaceOnUse" color-interpolation-filters="sRGB"><feFlood flood-opacity="0" result="BackgroundImageFix"/><feColorMatrix in="SourceAlpha" values="0 0 0 0 0 0 0 0 0 0 0 0 0 0 0 0 0 0 127 0" result="hardAlpha"/><feOffset dy="4"/><feGaussianBlur stdDeviation="2"/><feComposite in2="hardAlpha" operator="out"/><feColorMatrix values="0 0 0 0 0 0 0 0 0 0 0 0 0 0 0 0 0 0 0.25 0"/><feBlend in2="BackgroundImageFix" result="effect1_dropShadow_2_29"/><feBlend in="SourceGraphic" in2="effect1_dropShadow_2_29" result="shape"/></filter></defs></svg>